HIERARCHY
ROOT Pelvis
{
	OFFSET 0.000000 0.000000 0.000000
	CHANNELS 6 Xposition Yposition Zposition Xrotation Yrotation Zrotation
	JOINT LeftUpLeg_virtual
	{
		OFFSET 0.000000 0.000000 0.000000
		CHANNELS 3 Xrotation Yrotation Zrotation
		JOINT LeftUpLeg
		{
			OFFSET 18.735201 -5.666702 -4.541200
			CHANNELS 3 Xrotation Yrotation Zrotation
			JOINT LeftLeg
			{
				OFFSET -0.021200 -31.938179 0.493100
				CHANNELS 3 Xrotation Yrotation Zrotation
				JOINT LeftFoot
				{
					OFFSET 0.021200 -31.938179 -4.336299
					CHANNELS 3 Xrotation Yrotation Zrotation
					JOINT LeftToeBase
					{
						OFFSET 0.943001 -26.722000 15.023500
						CHANNELS 3 Xrotation Yrotation Zrotation
						End Site
						{
							OFFSET 0 0 0
						}
					}
				}
			}
		}
	}
	JOINT RightUpLeg_virtual
	{
		OFFSET 0.000000 0.000000 0.000000
		CHANNELS 3 Xrotation Yrotation Zrotation
		JOINT RightUpLeg
		{
			OFFSET -18.735201 -5.666702 -4.541200
			CHANNELS 3 Xrotation Yrotation Zrotation
			JOINT RightLeg
			{
				OFFSET 0.018946 -31.938133 0.493100
				CHANNELS 3 Xrotation Yrotation Zrotation
				JOINT RightFoot
				{
					OFFSET -0.018946 -31.938126 -4.336299
					CHANNELS 3 Xrotation Yrotation Zrotation
					JOINT RightToeBase
					{
						OFFSET -0.943001 -26.722004 15.023500
						CHANNELS 3 Xrotation Yrotation Zrotation
						End Site
						{
							OFFSET 0 0 0
						}
					}
				}
			}
		}
	}
	JOINT Hips_virtual
	{
		OFFSET 0.000000 0.000000 0.000000
		CHANNELS 3 Xrotation Yrotation Zrotation
		JOINT Hips
		{
			OFFSET -0.000000 -0.000000 -0.000000
			CHANNELS 3 Xrotation Yrotation Zrotation
			JOINT Spine
			{
				OFFSET 0.000000 10.199997 -0.299500
				CHANNELS 3 Xrotation Yrotation Zrotation
				JOINT Spine1
				{
					OFFSET 0.000000 11.900002 -1.516600
					CHANNELS 3 Xrotation Yrotation Zrotation
					JOINT Spine2
					{
						OFFSET 0.000000 13.600006 -2.842500
						CHANNELS 3 Xrotation Yrotation Zrotation
						JOINT Neck_virtual
						{
							OFFSET 0.000000 0.000000 0.000000
							CHANNELS 3 Xrotation Yrotation Zrotation
							JOINT Neck
							{
								OFFSET 0.000000 9.624100 -2.890100
								CHANNELS 3 Xrotation Yrotation Zrotation
								JOINT Head
								{
									OFFSET 0.000000 14.068802 -1.351900
									CHANNELS 3 Xrotation Yrotation Zrotation
									End Site
									{
										OFFSET 0 0 0
									}
								}
							}
						}
						JOINT LeftShoulder_virtual
						{
							OFFSET 0.000000 0.000000 0.000000
							CHANNELS 3 Xrotation Yrotation Zrotation
							JOINT LeftShoulder
							{
								OFFSET 15.263000 10.923401 -0.547700
								CHANNELS 3 Xrotation Yrotation Zrotation
								JOINT LeftArm
								{
									OFFSET 25.438599 -2.830597 -13.032500
									CHANNELS 3 Xrotation Yrotation Zrotation
									JOINT LeftForeArm
									{
										OFFSET 29.960503 0.000000 0.000000
										CHANNELS 3 Xrotation Yrotation Zrotation
										JOINT LeftHand
										{
											OFFSET 27.849251 0.000000 0.000000
											CHANNELS 3 Xrotation Yrotation Zrotation
											End Site
											{
												OFFSET 0 0 0
											}
										}
									}
								}
							}
						}
						JOINT RightShoulder_virtual
						{
							OFFSET 0.000000 0.000000 0.000000
							CHANNELS 3 Xrotation Yrotation Zrotation
							JOINT RightShoulder
							{
								OFFSET -15.263000 10.923401 -0.547700
								CHANNELS 3 Xrotation Yrotation Zrotation
								JOINT RightArm
								{
									OFFSET -25.438599 -2.830597 -13.032500
									CHANNELS 3 Xrotation Yrotation Zrotation
									JOINT RightForeArm
									{
										OFFSET -29.960503 0.000000 0.000000
										CHANNELS 3 Xrotation Yrotation Zrotation
										JOINT RightHand
										{
											OFFSET -27.849251 0.000000 0.000000
											CHANNELS 3 Xrotation Yrotation Zrotation
											End Site
											{
												OFFSET 0 0 0
											}
										}
									}
								}
							}
						}
					}
				}
			}
		}
	}
}
MOTION
Frames: 13
Frame Time: 0.03333333
-31.115993 84.172020 1.398939 0.000000 0.000000 0.000000 34.889969 2.896130 -5.503667 -70.173705 -13.241812 27.082434 40.110289 2.490862 4.895083 1.520382 -0.611895 -17.831585 0.000000 0.000000 0.000000 34.754359 3.522631 -5.648776 -67.469551 -0.636070 -24.494523 52.153262 -5.112925 -2.245924 -24.882615 12.320002 20.447186 0.000000 0.000000 0.000000 34.722141 3.730161 -5.331439 -0.745678 -0.054633 -0.089573 12.339993 -0.101700 1.786300 11.970484 1.303388 -0.118798 0.000000 0.000000 0.000000 8.573234 3.095552 -0.453907 -0.001874 -0.600301 0.697458 0.000000 0.000000 0.000000 11.092725 2.964335 -0.340545 -4.813743 -21.117019 -7.208501 9.090345 -14.956291 -50.374469 -30.537929 -74.774889 -30.357503 0.000000 0.000000 0.000000 8.471627 3.422998 -1.209597 7.066335 32.583199 1.345319 -13.904119 27.540914 25.235881 17.283454 30.864132 -8.885667 0.000000 0.000000 0.000000 
-30.153072 83.651016 1.481297 0.000000 0.000000 0.000000 38.026446 3.089920 -4.779836 -75.475653 -12.076269 26.586694 41.884001 2.498425 4.326260 -0.357058 -1.601787 -19.035276 0.000000 0.000000 0.000000 38.020002 3.655509 -4.976101 -71.276746 1.091934 -26.157977 52.579933 -4.570912 -2.420250 -25.979839 12.142943 21.698049 0.000000 0.000000 0.000000 37.963496 3.908441 -4.729973 -0.739241 -0.044551 -0.114685 12.720690 -0.181466 1.815539 12.323866 1.412453 -0.211596 0.000000 0.000000 0.000000 8.721072 3.115700 -0.471925 0.112849 -0.666769 0.716611 0.000000 0.000000 0.000000 11.189905 2.980742 -0.399791 -4.857577 -21.293060 -7.235077 8.588230 -14.722394 -49.821603 -35.833068 -76.629504 -35.749941 0.000000 0.000000 0.000000 8.482897 3.444293 -1.130512 6.462874 33.338187 1.762908 -16.097873 27.371215 21.947507 17.624169 30.770788 -9.377994 0.000000 0.000000 0.000000 
-29.225296 83.049698 1.691179 0.000000 0.000000 0.000000 41.112394 3.660888 -3.992526 -80.954933 -10.862069 26.123030 44.072605 2.348199 3.688701 -1.685508 -2.858399 -20.103759 0.000000 0.000000 0.000000 41.165349 4.173058 -4.196016 -75.155898 3.027793 -28.102153 53.788006 -3.977715 -2.458232 -26.853237 11.825287 22.621807 0.000000 0.000000 0.000000 41.144622 4.395059 -3.992796 -0.725874 -0.055933 -0.128298 13.055854 -0.395335 1.632895 12.670012 1.485791 -0.223730 0.000000 0.000000 0.000000 8.941854 3.113167 -0.406879 0.259856 -0.743651 0.766517 0.000000 0.000000 0.000000 11.249201 2.971157 -0.403465 -4.825353 -21.531413 -7.126435 8.903907 -15.164051 -49.369932 -42.855267 -78.329648 -42.966685 0.000000 0.000000 0.000000 8.460973 3.441209 -1.004802 5.622030 33.857162 2.767507 -18.731179 27.106029 18.582103 17.745030 30.888820 -9.833164 0.000000 0.000000 0.000000 
-28.376400 82.267387 2.015135 0.000000 0.000000 0.000000 44.010918 4.615589 -3.144098 -86.357012 -9.697840 25.527122 46.721960 2.118591 3.132913 -2.663892 -4.197150 -20.730046 0.000000 0.000000 0.000000 44.084992 5.097708 -3.340776 -78.857847 5.308386 -30.251792 55.785987 -3.434440 -2.499383 -27.976419 11.294845 23.094832 0.000000 0.000000 0.000000 44.123862 5.219422 -3.113191 -0.709386 -0.077043 -0.120513 13.325992 -0.670276 1.173664 13.042151 1.576625 -0.173969 0.000000 0.000000 0.000000 9.242472 3.134020 -0.292659 0.403472 -0.829215 0.833279 0.000000 0.000000 0.000000 11.329208 2.984046 -0.341416 -4.707360 -21.785117 -6.785290 9.631629 -16.116029 -49.123376 -51.038589 -79.592720 -51.404127 0.000000 0.000000 0.000000 8.507042 3.464340 -0.844146 4.612488 34.205215 4.223850 -21.298072 26.667417 15.027354 17.743488 31.554060 -10.272764 0.000000 0.000000 0.000000 
-27.637793 81.250938 2.415815 0.000000 0.000000 0.000000 46.663460 5.863904 -2.258197 -91.448508 -8.655713 24.656156 49.778805 1.801448 2.761220 -3.858834 -5.481645 -20.871352 0.000000 0.000000 0.000000 46.715615 6.318629 -2.450658 -82.132506 7.957910 -32.452773 58.531853 -2.977936 -2.705833 -29.774762 10.520077 23.161204 0.000000 0.000000 0.000000 46.809561 6.359659 -2.151182 -0.697431 -0.098808 -0.089008 13.493112 -0.926858 0.506695 13.473336 1.734343 -0.102732 0.000000 0.000000 0.000000 9.631566 3.235195 -0.185401 0.520276 -0.926435 0.895509 0.000000 0.000000 0.000000 11.503199 3.084643 -0.244984 -4.510323 -22.002244 -6.185640 10.207934 -17.247988 -49.119179 -59.029042 -80.358180 -59.657276 0.000000 0.000000 0.000000 8.743856 3.571821 -0.688024 3.645048 34.472819 5.692588 -23.540933 26.137355 11.433139 17.587008 32.481900 -10.609609 0.000000 0.000000 0.000000 
-27.034922 79.978889 2.926077 0.000000 0.000000 0.000000 49.005057 7.292713 -1.401162 -96.089102 -7.721316 23.522516 53.205644 1.434144 2.591024 -5.540634 -6.608257 -20.636722 0.000000 0.000000 0.000000 49.045683 7.737094 -1.595889 -84.748557 10.913065 -34.542268 61.860634 -2.561254 -3.119991 -32.404169 9.619029 23.017949 0.000000 0.000000 0.000000 49.163186 7.720074 -1.224258 -0.698956 -0.100018 -0.050697 13.573769 -1.099014 -0.195897 13.986097 2.000482 -0.043077 0.000000 0.000000 0.000000 10.086708 3.441731 -0.134622 0.590302 -1.031610 0.930398 0.000000 0.000000 0.000000 11.774121 3.309534 -0.142269 -4.253652 -22.101533 -5.362433 10.296070 -18.437450 -49.297119 -66.057280 -80.761605 -66.934058 0.000000 0.000000 0.000000 9.145646 3.792194 -0.554792 2.904693 34.743222 6.744352 -25.477704 25.783930 7.992681 17.204483 32.965450 -10.753908 0.000000 0.000000 0.000000 
-26.559761 78.504677 3.469110 0.000000 0.000000 0.000000 51.038069 8.809797 -0.668266 -100.289088 -6.875934 22.284390 56.910424 1.138006 2.545073 -7.620943 -7.468005 -20.155902 0.000000 0.000000 0.000000 51.107140 9.268334 -0.890562 -86.734687 13.989667 -36.500954 65.654866 -2.128158 -3.709588 -35.417481 8.831998 22.958404 0.000000 0.000000 0.000000 51.212441 9.174577 -0.459979 -0.705848 -0.086004 -0.026190 13.549067 -1.180358 -0.746015 14.576488 2.370278 -0.013324 0.000000 0.000000 0.000000 10.605427 3.757040 -0.145976 0.615610 -1.140360 0.932309 0.000000 0.000000 0.000000 12.158412 3.662883 -0.041057 -3.929649 -22.043116 -4.403499 9.851671 -19.518768 -49.621314 -71.739663 -80.931390 -72.843954 0.000000 0.000000 0.000000 9.666848 4.125843 -0.460881 2.514178 35.077338 7.039504 -27.295102 25.811404 4.880168 16.558252 32.419619 -10.655313 0.000000 0.000000 0.000000 
-26.230780 76.932907 4.079254 0.000000 0.000000 0.000000 52.836298 10.327173 -0.156456 -103.978080 -6.121133 21.109681 60.663718 0.961246 2.599981 -10.006097 -8.009683 -19.560183 0.000000 0.000000 0.000000 52.949573 10.788525 -0.371207 -88.214209 16.921201 -38.227339 69.844422 -1.646609 -4.400648 -38.343770 8.305414 23.064417 0.000000 0.000000 0.000000 53.043153 10.634400 0.056676 -0.716880 -0.063629 -0.023956 13.399895 -1.222718 -1.055755 15.241168 2.819080 0.004513 0.000000 0.000000 0.000000 11.181007 4.165089 -0.181516 0.611313 -1.252012 0.900391 0.000000 0.000000 0.000000 12.652188 4.124916 0.061727 -3.585945 -21.881636 -3.482336 9.152138 -20.551875 -50.014965 -77.202263 -81.026794 -78.548753 0.000000 0.000000 0.000000 10.244244 4.547100 -0.393749 2.466107 35.424926 6.603143 -29.368283 26.150612 2.365051 15.672537 30.797456 -10.379917 0.000000 0.000000 0.000000 
-26.016836 75.388672 4.726473 0.000000 0.000000 0.000000 54.461931 11.785519 0.077661 -107.072873 -5.532788 20.095962 64.139451 0.936251 2.778210 -12.524745 -8.236283 -18.993769 0.000000 0.000000 0.000000 54.633823 12.271056 -0.124024 -89.266529 19.489853 -39.718861 74.072773 -1.206195 -5.068869 -41.002032 8.004576 23.200314 0.000000 0.000000 0.000000 54.749311 12.014158 0.288060 -0.721869 -0.045469 -0.031102 13.133703 -1.276590 -1.160128 15.978715 3.307035 0.047962 0.000000 0.000000 0.000000 11.792950 4.618584 -0.173890 0.598217 -1.359539 0.843047 0.000000 0.000000 0.000000 13.240726 4.633745 0.203763 -3.260568 -21.695806 -2.739564 8.516252 -21.593954 -50.451947 -83.171466 -81.063957 -84.811511 0.000000 0.000000 0.000000 10.831012 5.010815 -0.315971 2.609821 35.730755 5.773272 -31.759943 26.543281 0.518660 14.797041 28.994355 -10.180582 0.000000 0.000000 0.000000 
-25.909414 73.982506 5.405546 0.000000 0.000000 0.000000 55.987696 13.107087 0.034414 -109.518682 -5.164691 19.292137 67.064555 1.055462 3.098331 -15.039931 -8.157497 -18.577549 0.000000 0.000000 0.000000 56.191297 13.603873 -0.136616 -89.982640 21.495270 -40.979059 78.060839 -0.925136 -5.650688 -43.437722 7.799122 23.128489 0.000000 0.000000 0.000000 56.377334 13.220301 0.266207 -0.716699 -0.043036 -0.038182 12.737850 -1.406223 -1.180440 16.737440 3.761054 0.140055 0.000000 0.000000 0.000000 12.431091 5.065517 -0.083957 0.592570 -1.458565 0.770830 0.000000 0.000000 0.000000 13.906338 5.126006 0.405891 -3.002090 -21.577175 -2.282197 8.096592 -22.480166 -50.925143 -90.445973 -81.027975 -92.405404 0.000000 0.000000 0.000000 11.435990 5.462663 -0.211734 2.754219 35.866543 4.947515 -34.406497 26.603549 -0.627478 14.153669 28.267703 -10.246990 0.000000 0.000000 0.000000 
-25.880842 72.779282 6.116035 0.000000 0.000000 0.000000 57.431284 14.215617 -0.247066 -111.292625 -5.028317 18.706222 69.289646 1.286328 3.560877 -17.626316 -7.829814 -18.435886 0.000000 0.000000 0.000000 57.642309 14.716636 -0.369186 -90.376455 22.851463 -41.926126 81.479949 -0.825354 -6.092685 -45.887810 7.536899 22.780814 0.000000 0.000000 0.000000 57.932838 14.203490 0.031738 -0.705372 -0.056461 -0.037237 12.238196 -1.654440 -1.223275 17.469973 4.119411 0.275380 0.000000 0.000000 0.000000 13.047215 5.445919 0.085788 0.603087 -1.541930 0.687868 0.000000 0.000000 0.000000 14.626112 5.524142 0.658021 -2.862504 -21.635956 -2.168625 7.942096 -23.050176 -51.370256 -98.624004 -80.829176 -100.887502 0.000000 0.000000 0.000000 12.064179 5.835369 -0.089566 2.784809 35.677992 4.365351 -37.124260 26.128656 -1.053521 13.929741 29.547716 -10.747178 0.000000 0.000000 0.000000 
-25.881966 71.789558 6.786510 0.000000 0.000000 0.000000 58.766565 15.034997 -0.695278 -112.571906 -5.146115 18.297211 70.924602 1.599439 4.104205 -20.129647 -7.299138 -18.534548 0.000000 0.000000 0.000000 58.981839 15.561157 -0.810397 -90.434232 23.531545 -42.685588 84.053968 -0.860353 -6.333978 -48.449937 7.144487 22.271307 0.000000 0.000000 0.000000 59.363776 14.906840 -0.371276 -0.696064 -0.076768 -0.022840 11.704411 -2.034749 -1.302017 18.139341 4.326714 0.426369 0.000000 0.000000 0.000000 13.621407 5.700753 0.292244 0.635311 -1.605470 0.600034 0.000000 0.000000 0.000000 15.365098 5.773885 0.929545 -2.856552 -21.862565 -2.396563 7.919100 -22.899905 -51.783130 -105.903709 -80.477687 -108.369468 0.000000 0.000000 0.000000 12.696811 6.078760 0.019720 2.681503 35.128291 4.043098 -39.538886 25.299471 -0.773990 14.238830 32.904686 -11.737034 0.000000 0.000000 0.000000 
-25.895704 70.964798 7.405760 0.000000 0.000000 0.000000 59.918121 15.563006 -1.267476 -113.560583 -5.473506 18.041841 72.365875 1.988047 4.649595 -22.368250 -6.568827 -18.670206 0.000000 0.000000 0.000000 60.153100 16.064866 -1.378422 -90.227270 23.563181 -43.271407 85.898542 -0.894687 -6.376570 -50.975321 6.693428 21.808207 0.000000 0.000000 0.000000 60.567276 15.341952 -0.907274 -0.692159 -0.091677 -0.009003 11.214585 -2.540870 -1.338636 18.692414 4.344581 0.548665 0.000000 0.000000 0.000000 14.130668 5.789644 0.455403 0.686898 -1.645420 0.513650 0.000000 0.000000 0.000000 16.083451 5.854253 1.158357 -2.967633 -22.249602 -2.923573 7.914062 -21.905023 -52.121044 -111.086067 -80.133528 -113.575001 0.000000 0.000000 0.000000 13.292591 6.145679 0.069409 2.512488 34.203197 3.798663 -41.423786 24.495097 0.316100 15.055221 37.439805 -13.162978 0.000000 0.000000 0.000000 
